<mxfile host="65bd71144e">
    <diagram id="kF2qk7ZDk1fomTMGKyqu" name="Page-1">
        <mxGraphModel dx="1143" dy="1236" grid="1" gridSize="10" guides="1" tooltips="1" connect="1" arrows="1" fold="1" page="1" pageScale="1" pageWidth="827" pageHeight="1169" math="1" shadow="0">
            <root>
                <mxCell id="0"/>
                <mxCell id="1" parent="0"/>
                <mxCell id="34" style="edgeStyle=none;html=1;entryX=0.5;entryY=0;entryDx=0;entryDy=0;fontSize=28;" edge="1" parent="1" source="2" target="3">
                    <mxGeometry relative="1" as="geometry"/>
                </mxCell>
                <mxCell id="2" value="&lt;font style=&quot;font-size: 28px;&quot;&gt;Start&lt;/font&gt;" style="ellipse;whiteSpace=wrap;html=1;fillColor=none;" parent="1" vertex="1">
                    <mxGeometry x="354" y="40" width="120" height="80" as="geometry"/>
                </mxCell>
                <mxCell id="37" style="edgeStyle=none;html=1;fontSize=28;" edge="1" parent="1" source="3">
                    <mxGeometry relative="1" as="geometry">
                        <mxPoint x="414" y="320" as="targetPoint"/>
                    </mxGeometry>
                </mxCell>
                <mxCell id="3" value="" style="rounded=1;whiteSpace=wrap;html=1;fontSize=28;align=center;verticalAlign=middle;fillColor=none;" parent="1" vertex="1">
                    <mxGeometry x="294" y="160" width="240" height="120" as="geometry"/>
                </mxCell>
                <mxCell id="38" style="edgeStyle=none;html=1;fontSize=28;" edge="1" parent="1" source="6">
                    <mxGeometry relative="1" as="geometry">
                        <mxPoint x="414" y="440" as="targetPoint"/>
                    </mxGeometry>
                </mxCell>
                <mxCell id="6" value="" style="rounded=1;whiteSpace=wrap;html=1;fontSize=28;verticalAlign=middle;align=center;fillColor=none;" parent="1" vertex="1">
                    <mxGeometry x="254" y="320" width="320" height="80" as="geometry"/>
                </mxCell>
                <mxCell id="11" value="\[\mathbf{x}^{(0)}=\mathbf{1}\]" style="text;html=1;strokeColor=none;fillColor=none;align=center;verticalAlign=middle;whiteSpace=wrap;rounded=0;fontSize=28;" parent="1" vertex="1">
                    <mxGeometry x="369" y="230" width="90" height="30" as="geometry"/>
                </mxCell>
                <mxCell id="12" value="Set initial solution" style="text;html=1;strokeColor=none;fillColor=none;align=center;verticalAlign=middle;whiteSpace=wrap;rounded=0;fontSize=28;" parent="1" vertex="1">
                    <mxGeometry x="294" y="190" width="240" height="30" as="geometry"/>
                </mxCell>
                <mxCell id="13" value="Compute" style="text;html=1;strokeColor=none;fillColor=none;align=center;verticalAlign=middle;whiteSpace=wrap;rounded=0;fontSize=28;" parent="1" vertex="1">
                    <mxGeometry x="274" y="345" width="120" height="30" as="geometry"/>
                </mxCell>
                <mxCell id="15" value="\[\mathbf{W}^{(k)}, \mathbf{H}^{(k)}\]" style="text;html=1;strokeColor=none;fillColor=none;align=center;verticalAlign=middle;whiteSpace=wrap;rounded=0;fontSize=28;" parent="1" vertex="1">
                    <mxGeometry x="424" y="345" width="120" height="30" as="geometry"/>
                </mxCell>
                <mxCell id="20" value="" style="rounded=1;whiteSpace=wrap;html=1;fontSize=28;fillColor=none;" parent="1" vertex="1">
                    <mxGeometry x="164" y="560" width="500" height="80" as="geometry"/>
                </mxCell>
                <mxCell id="42" value="" style="edgeStyle=none;html=1;fontSize=28;" edge="1" parent="1" source="21">
                    <mxGeometry relative="1" as="geometry">
                        <mxPoint x="414" y="680" as="targetPoint"/>
                    </mxGeometry>
                </mxCell>
                <mxCell id="21" value="\[\mathbf{x}^{(k+1)} = \left(\mathbf{T}^\mathsf{T}\mathbf{T} + \lambda \mathbf{H}^{(k)}\right)^{-1}\mathbf{T}^\mathsf{T}\mathbf{b}\]" style="text;html=1;strokeColor=none;fillColor=none;align=center;verticalAlign=middle;whiteSpace=wrap;rounded=0;fontSize=28;" parent="1" vertex="1">
                    <mxGeometry x="174" y="560" width="480" height="80" as="geometry"/>
                </mxCell>
                <mxCell id="40" style="edgeStyle=none;html=1;fontSize=28;" edge="1" parent="1" source="22">
                    <mxGeometry relative="1" as="geometry">
                        <mxPoint x="414" y="560" as="targetPoint"/>
                    </mxGeometry>
                </mxCell>
                <mxCell id="22" value="" style="rounded=1;whiteSpace=wrap;html=1;fillColor=none;" vertex="1" parent="1">
                    <mxGeometry x="294" y="440" width="240" height="80" as="geometry"/>
                </mxCell>
                <mxCell id="27" value="Optimize" style="text;html=1;strokeColor=none;fillColor=none;align=center;verticalAlign=middle;whiteSpace=wrap;rounded=0;fontSize=28;" vertex="1" parent="1">
                    <mxGeometry x="328" y="465" width="130" height="30" as="geometry"/>
                </mxCell>
                <mxCell id="28" value="\[\lambda\]" style="text;html=1;strokeColor=none;fillColor=none;align=center;verticalAlign=middle;whiteSpace=wrap;rounded=0;fontSize=28;" vertex="1" parent="1">
                    <mxGeometry x="439" y="465" width="60" height="30" as="geometry"/>
                </mxCell>
                <mxCell id="43" style="edgeStyle=none;html=1;exitX=1;exitY=0.5;exitDx=0;exitDy=0;fontSize=28;entryX=1;entryY=0.5;entryDx=0;entryDy=0;" edge="1" parent="1" source="29" target="6">
                    <mxGeometry relative="1" as="geometry">
                        <mxPoint x="740" y="390" as="targetPoint"/>
                        <Array as="points">
                            <mxPoint x="700" y="760"/>
                            <mxPoint x="700" y="360"/>
                        </Array>
                    </mxGeometry>
                </mxCell>
                <mxCell id="44" value="" style="edgeStyle=none;html=1;fontSize=28;" edge="1" parent="1" source="29" target="32">
                    <mxGeometry relative="1" as="geometry"/>
                </mxCell>
                <mxCell id="29" value="Reach max iteration?&lt;br&gt;or&lt;br&gt;Converged?" style="rhombus;whiteSpace=wrap;html=1;fontSize=28;fillColor=none;" vertex="1" parent="1">
                    <mxGeometry x="228" y="680" width="372" height="156.08" as="geometry"/>
                </mxCell>
                <mxCell id="32" value="End" style="strokeWidth=2;html=1;shape=mxgraph.flowchart.terminator;whiteSpace=wrap;fontSize=28;fillColor=none;" vertex="1" parent="1">
                    <mxGeometry x="364" y="920" width="100" height="60" as="geometry"/>
                </mxCell>
                <mxCell id="45" value="No" style="text;html=1;strokeColor=none;fillColor=none;align=center;verticalAlign=middle;whiteSpace=wrap;rounded=0;fontSize=28;" vertex="1" parent="1">
                    <mxGeometry x="594" y="720" width="60" height="30" as="geometry"/>
                </mxCell>
                <mxCell id="46" value="Yes" style="text;html=1;strokeColor=none;fillColor=none;align=center;verticalAlign=middle;whiteSpace=wrap;rounded=0;fontSize=28;" vertex="1" parent="1">
                    <mxGeometry x="414" y="850" width="60" height="30" as="geometry"/>
                </mxCell>
            </root>
        </mxGraphModel>
    </diagram>
</mxfile>
